<svg xmlns="http://www.w3.org/2000/svg" viewBox="0 0 100 100" role="img" aria-label="Titantech CNC">
<rect width="100" height="100" fill="#0b0c0e"/>
<g fill="#d62828">
<circle cx="50" cy="50" r="30" fill="none" stroke="#d62828" stroke-width="11"/>
<rect x="42.5" y="3" width="15" height="12" rx="1" transform="rotate(0 50 50)"/>
<rect x="42.5" y="3" width="15" height="12" rx="1" transform="rotate(60 50 50)"/>
<rect x="42.5" y="3" width="15" height="12" rx="1" transform="rotate(120 50 50)"/>
<rect x="42.5" y="3" width="15" height="12" rx="1" transform="rotate(180 50 50)"/>
<rect x="42.5" y="3" width="15" height="12" rx="1" transform="rotate(240 50 50)"/>
<rect x="42.5" y="3" width="15" height="12" rx="1" transform="rotate(300 50 50)"/>
<rect x="45" y="30" width="11" height="30" rx="1"/>
<rect x="29" y="40" width="11" height="20" rx="1"/>
<rect x="61" y="40" width="11" height="20" rx="1"/>
</g>
</svg>
